<svg xmlns="http://www.w3.org/2000/svg" viewBox="0 0 1023.53 1181.87"><defs><style>.cls-1{fill:#fff;}</style></defs><g id="Layer_2" data-name="Layer 2"><polygon points="511.76 1181.87 0 886.4 0 295.47 511.76 0 1023.53 295.47 1023.53 886.4 511.76 1181.87"/></g><g id="Layer_4" data-name="Layer 4"><circle class="cls-1" cx="389.3" cy="491.52" r="147.48"/><path class="cls-1" d="M259.17,468.89s-17.53,26.45-62.83,30.23-57,47.25-57,47.25,92.44-7.65,170.42,53.81" transform="translate(-0.24)"/><circle cx="349.48" cy="477.69" r="29.45"/><path class="cls-1" d="M400.15,837.6c58.13-3.94,109.45-43.29,185-39.35s101.11,43.28,170.66,38c24-1.81,51.25-7.68,76.65-14.59,11.37-19.92,17.62-41.55,17.62-64.18,0-98.69-118.62-178.7-264.93-178.7s-264.92,80-264.92,178.7c0,25.23,7.77,49.24,21.75,71C361.88,834.75,381.26,838.87,400.15,837.6Z" transform="translate(-0.24)"/><path class="cls-1" d="M715.66,608.79s89,34.6,169-4c0,0-32.35,77.55-33.2,152.77" transform="translate(-0.24)"/><circle class="cls-1" cx="356.24" cy="467.23" r="6.76"/></g></svg>