<svg xmlns="http://www.w3.org/2000/svg" viewBox="0 0 1023.53 1181.87"><defs><style>.cls-1{fill:#fff;}</style></defs><g id="Layer_2" data-name="Layer 2"><polygon points="511.76 1181.87 0 886.4 0 295.47 511.76 0 1023.53 295.47 1023.53 886.4 511.76 1181.87"/></g><g id="Layer_3" data-name="Layer 3"><path class="cls-1" d="M169.19,955.91c52.79-34.59,100.66-77.3,144.43-122.64,41.84-43.34,79.94-90.65,112.25-141.53,32.74-51.58,59.43-107.32,77.77-165.63,19.1-60.71,29.23-124.84,28.3-188.52a537.38,537.38,0,0,0-10.18-96.42c-5.5-27.73-11.86-62.12-37.88-78.32-15.22-9.48-34.82-7.44-48.86,3.17-12.11,9.15-22.06,21.06-31.4,32.95a383.1,383.1,0,0,0-46.53,75.75c-24.73,53.32-39.35,110.4-49,168.21a1349,1349,0,0,0-18.52,206.94c-.39,34,.36,68.16,2.82,102.12s6.91,68.06,17.8,100.32c10.13,30,25.63,57.81,51.25,77.14s58.64,23.43,89.57,18.77c14.57-2.19,28.45-7.18,41.68-13.57,9.44-4.56,12.71-18.78,7.17-27.36-6.25-9.69-17.26-12-27.36-7.18-1.42.69-2.85,1.35-4.28,2-3.53,1.6,2.58-.94-1.06.4-3.23,1.19-6.45,2.35-9.75,3.33q-4.58,1.35-9.23,2.37c-1.55.33-3.11.64-4.67.92l-2.35.39c-3,.5,0,.52.61-.07-1.35,1.22-7.6.66-9.44.73-3.4.12-6.81.09-10.2-.09-1.56-.09-3.12-.21-4.68-.37-.38,0-2.06,0-2.32-.25,0,0,3.87.66,1.46.16-3.3-.69-6.6-1.23-9.86-2.12-3-.81-5.91-1.81-8.82-2.88-3.88-1.41.25.27.49.24-.44.06-1.71-.79-2.11-1-1.64-.79-3.25-1.62-4.83-2.51-2.75-1.54-5.36-3.27-7.94-5.07-3.13-2.18,1.95,1.76-.92-.73-1.38-1.2-2.77-2.39-4.1-3.65q-3.44-3.23-6.53-6.77c-1-1.18-2-2.42-3-3.61-1.46-1.71.6.77.72.93-.61-.86-1.25-1.69-1.86-2.55a138.45,138.45,0,0,1-10.22-17c-1.46-2.85-2.74-5.78-4.12-8.66-1-2.06.37.91.44,1.1l-.9-2.22c-.7-1.72-1.37-3.46-2-5.2-2.62-7.06-4.87-14.26-6.86-21.52-2.06-7.54-3.81-15.16-5.3-22.83q-1.07-5.54-2-11.1-.46-2.78-.87-5.57c-.14-.93-.26-1.86-.41-2.79-.5-3.23.36,3,0-.27-3.92-32.06-5.32-64.39-5.86-96.67q-.83-49.1,2-98.16,1.41-24.51,3.73-49,1.22-12.71,2.66-25.39.68-5.86,1.39-11.71c.24-2,.49-3.89.74-5.84.12-1,.25-1.95.38-2.92,0-.36.55-4.19.28-2.21s.15-1.1.17-1.24c.14-1,.27-1.94.4-2.92.28-1.94.55-3.89.83-5.83q.91-6.31,1.88-12.63,1.65-10.74,3.5-21.47,3.5-20.24,7.88-40.32a633.2,633.2,0,0,1,22.71-79.8q3.46-9.59,7.34-19c.3-.76.62-1.51.93-2.26-.08.2-1.35,3.13-.44,1,.65-1.5,1.28-3,1.94-4.48q2.12-4.83,4.36-9.61a389.13,389.13,0,0,1,19-35.69q5.19-8.64,10.87-17,2.73-4,5.58-7.91c.95-1.31,1.91-2.6,2.87-3.9.49-.64,1-1.28,1.46-1.93-1,1.37-1.47,1.87-.16.21,4.19-5.29,8.51-10.48,13-15.51q3.25-3.63,6.63-7.15c1.12-1.17,2.26-2.32,3.43-3.43s4.68-3.73,1.51-1.57c1.32-.9,2.64-1.74,4-2.57,3.07-1.87-2.47.46,1-.35.52-.12,3.16-.64.3-.18s-.47,0,0,.13,3,.48-.2-.2c-3.44-.73.11.17.88.3,3.17.51-3.1-2-.38-.24.39.25,2.74,2,3.06,1.91-.31.09-2.91-2.74-1.65-1.2a16.73,16.73,0,0,0,1.38,1.28c.46.45.88.93,1.33,1.38.75.76,2.48,1.66.53.47-1.53-.94-.7-1,0,.09.37.56.76,1.11,1.13,1.67.74,1.15,1.44,2.32,2.11,3.51s1.32,2.44,1.92,3.68c.31.63.59,1.26.89,1.89,1.2,2.55-.44,0-.39-.94-.11,2.08,2.07,5.69,2.69,7.76,1,3.41,1.88,6.87,2.74,10.33q5.43,21.62,8.83,43.67.42,2.64.79,5.28c.13.88.25,1.76.38,2.65,0-.3-.41-3.27-.13-.91.47,3.83,1,7.66,1.35,11.49q1.17,11.07,1.86,22.18a543.84,543.84,0,0,1-2,90q-.56,5.34-1.2,10.66c-.22,1.78-.45,3.55-.68,5.33.51-3.89-.21,1.38-.4,2.65q-1.62,11.09-3.66,22.08-4.08,22-9.79,43.71T460.33,530q-3.63,10.59-7.61,21-2.07,5.43-4.25,10.82c-.66,1.66-1.34,3.32-2,5-.34.83-.69,1.65-1,2.48-1.2,2.91,1.19-2.74,0,0a744.36,744.36,0,0,1-37.57,75A779.05,779.05,0,0,1,362,714.56q-3.23,4.41-6.5,8.78c-1,1.34-2,2.69-3,4l-1.53,2c-.24.32-2.43,3.15-1,1.31s-.31.4-.5.64l-1.55,2q-1.56,2-3.13,4-3.39,4.29-6.85,8.53-13.27,16.34-27.32,32-28.08,31.41-58.79,60.32-16.11,15.21-32.84,29.73-8.72,7.57-17.63,14.91-4.27,3.53-8.6,7c-1.45,1.15-2.89,2.3-4.35,3.44l-2.18,1.71c-2.48,2,2.2-1.66-.33.26-12,9.13-24.23,17.92-36.85,26.19-8.74,5.73-13.24,18-7.18,27.36,5.63,8.73,18,13.31,27.37,7.18Z" transform="translate(-0.24)"/><path class="cls-1" d="M415.4,955.91c52.8-34.59,100.66-77.3,144.43-122.64,41.84-43.34,79.95-90.65,112.25-141.53,32.74-51.58,59.43-107.32,77.78-165.63,19.09-60.71,29.22-124.84,28.3-188.52A536.48,536.48,0,0,0,768,241.17c-5.49-27.73-11.86-62.12-37.88-78.32-15.21-9.48-34.81-7.44-48.86,3.17-12.11,9.15-22.06,21.06-31.4,32.95a383.53,383.53,0,0,0-46.52,75.75c-24.73,53.32-39.35,110.4-49,168.21a1347.75,1347.75,0,0,0-18.52,206.94c-.4,34,.35,68.16,2.82,102.12s6.91,68.06,17.8,100.32c10.12,30,25.63,57.81,51.24,77.14s58.64,23.43,89.58,18.77c14.56-2.19,28.44-7.18,41.67-13.57,9.45-4.56,12.71-18.78,7.18-27.36-6.25-9.69-17.26-12-27.37-7.18-1.41.69-2.84,1.35-4.28,2-3.52,1.6,2.59-.94-1,.4-3.23,1.19-6.46,2.35-9.76,3.33-3,.9-6.12,1.69-9.22,2.37-1.56.33-3.11.64-4.68.92l-2.34.39c-3,.5,0,.52.61-.07-1.35,1.22-7.61.66-9.45.73q-5.1.18-10.2-.09c-1.56-.09-3.12-.21-4.67-.37-.39,0-2.07,0-2.33-.25,0,0,3.88.66,1.46.16-3.29-.69-6.59-1.23-9.85-2.12-3-.81-5.91-1.81-8.83-2.88-3.87-1.41.25.27.49.24-.44.06-1.7-.79-2.11-1-1.63-.79-3.25-1.62-4.83-2.51-2.74-1.54-5.35-3.27-7.93-5.07-3.13-2.18,1.94,1.76-.93-.73-1.38-1.2-2.77-2.39-4.1-3.65q-3.42-3.23-6.53-6.77c-1-1.18-2-2.42-3-3.61-1.46-1.71.59.77.71.93-.61-.86-1.25-1.69-1.86-2.55a141,141,0,0,1-10.22-17c-1.45-2.85-2.73-5.78-4.11-8.66-1-2.06.36.91.44,1.1-.31-.74-.61-1.48-.91-2.22-.69-1.72-1.36-3.46-2-5.2-2.61-7.06-4.87-14.26-6.85-21.52-2.06-7.54-3.81-15.16-5.3-22.83q-1.08-5.54-2-11.1-.45-2.78-.87-5.57c-.14-.93-.26-1.86-.4-2.79-.51-3.23.35,3,0-.27-3.91-32.06-5.32-64.39-5.86-96.67q-.81-49.1,2-98.16,1.41-24.51,3.73-49,1.2-12.71,2.66-25.39.66-5.86,1.39-11.71c.24-2,.48-3.89.73-5.84.13-1,.25-1.95.38-2.92,0-.36.55-4.19.29-2.21s.15-1.1.17-1.24c.13-1,.26-1.94.4-2.92.27-1.94.55-3.89.83-5.83q.9-6.31,1.87-12.63,1.66-10.74,3.5-21.47,3.51-20.24,7.88-40.32a636.57,636.57,0,0,1,22.71-79.8q3.48-9.59,7.34-19c.31-.76.63-1.51.93-2.26-.08.2-1.34,3.13-.43,1q1-2.25,1.93-4.48,2.13-4.83,4.36-9.61a394.09,394.09,0,0,1,19-35.69q5.21-8.64,10.88-17,2.73-4,5.57-7.91c.95-1.31,1.91-2.6,2.88-3.9.48-.64,1-1.28,1.46-1.93-1,1.37-1.47,1.87-.16.21,4.18-5.29,8.51-10.48,13-15.51,2.17-2.42,4.37-4.81,6.63-7.15,1.12-1.17,2.26-2.32,3.43-3.43s4.68-3.73,1.5-1.57c1.32-.9,2.65-1.74,4-2.57,3.07-1.87-2.47.46,1-.35.53-.12,3.17-.64.3-.18s-.47,0,0,.13,3,.48-.21-.2c-3.43-.73.12.17.88.3,3.17.51-3.1-2-.38-.24.39.25,2.75,2,3.07,1.91-.31.09-2.92-2.74-1.65-1.2a16.73,16.73,0,0,0,1.38,1.28c.45.45.87.93,1.32,1.38.76.76,2.48,1.66.53.47-1.53-.94-.7-1,0,.09.38.56.76,1.11,1.13,1.67.75,1.15,1.45,2.32,2.12,3.51s1.31,2.44,1.92,3.68l.89,1.89c1.2,2.55-.44,0-.39-.94-.11,2.08,2.06,5.69,2.68,7.76,1,3.41,1.88,6.87,2.75,10.33Q729.56,249.93,733,272q.4,2.64.79,5.28c.12.88.25,1.76.37,2.65,0-.3-.41-3.27-.12-.91.46,3.83.94,7.66,1.35,11.49q1.17,11.07,1.86,22.18a544.93,544.93,0,0,1-2,90q-.56,5.34-1.21,10.66c-.22,1.78-.44,3.55-.68,5.33.52-3.89-.21,1.38-.39,2.65q-1.62,11.09-3.66,22.08-4.08,22-9.79,43.71t-13,42.89q-3.62,10.59-7.61,21-2.07,5.43-4.24,10.82c-.67,1.66-1.34,3.32-2,5-.34.83-.69,1.65-1,2.48-1.19,2.91,1.2-2.74,0,0a744.36,744.36,0,0,1-37.57,75,783.4,783.4,0,0,1-45.85,70.28Q605,719,601.7,723.34c-1,1.34-2,2.69-3,4-.5.67-1,1.34-1.53,2-.24.32-2.42,3.15-1,1.31s-.31.4-.49.64l-1.56,2c-1,1.33-2.08,2.65-3.12,4q-3.4,4.29-6.85,8.53-13.29,16.34-27.33,32Q528.72,809.24,498,838.15q-16.11,15.21-32.84,29.73-8.73,7.57-17.63,14.91c-2.86,2.35-5.72,4.67-8.61,7l-4.34,3.44c-.73.57-1.46,1.13-2.18,1.71-2.49,2,2.19-1.66-.33.26-12,9.13-24.24,17.92-36.86,26.19-8.74,5.73-13.23,18-7.17,27.36,5.62,8.73,18,13.31,27.36,7.18Z" transform="translate(-0.24)"/></g></svg>